<?xml version="1.0" standalone="no"?>
<!DOCTYPE svg PUBLIC "-//W3C//DTD SVG 20010904//EN"
 "http://www.w3.org/TR/2001/REC-SVG-20010904/DTD/svg10.dtd">
<svg version="1.0" xmlns="http://www.w3.org/2000/svg"
 width="96.000000pt" height="96.000000pt" viewBox="0 0 96.000000 96.000000"
 preserveAspectRatio="xMidYMid meet">
<metadata>
Created by potrace 1.14, written by Peter Selinger 2001-2017
</metadata>
<g transform="translate(0.000000,96.000000) scale(0.100000,-0.100000)"
fill="#000000" stroke="none">
<path d="M360 854 c-193 -94 -235 -116 -247 -132 -10 -12 -13 -75 -13 -237 0
-256 -11 -228 120 -298 206 -109 243 -127 262 -127 11 0 56 20 101 43 45 24
116 61 157 82 129 66 120 43 120 300 0 183 -3 224 -16 243 -8 12 -19 22 -23
22 -5 0 -76 32 -157 71 -82 39 -162 73 -179 75 -21 2 -59 -11 -125 -42z"/>
</g>
</svg>
